<svg xmlns="http://www.w3.org/2000/svg" id="135724361" viewBox="0 0 430 142" height="142" width="430" style="width: 430px; height: 142px; position: absolute; top: 50%; left: 50%; transform: translate(-50%, -50%) scale(0.506512); z-index: 0; cursor: pointer;"><defs id="SvgjsDefs1020"/><g id="SvgjsG1021" featurekey="symbolContainer" transform="matrix(1,0,0,1,20,20)" fill="#ede2bf"><rect xmlns="http://www.w3.org/2000/svg" width="110" height="122" rx="10" ry="10"/></g><g id="SvgjsG1022" featurekey="monogramFeature-0" transform="matrix(1.946859352915576,0,0,1.946859352915576,37.10958942878017,4.9565353608591565)" fill="#a31b00"><path d="M2.1 60.12 c-0.6 0.06 -0.84 -1.92 -0.36 -2.04 c3.48 -0.9 6.24 -1.44 6.24 -5.88 l0 -26.88 c0 -4.2 -2.52 -5.04 -5.1 -5.4 c-0.48 -0.06 -0.12 -1.92 0.3 -1.92 l16.14 0 c0.48 0 0.78 1.86 0.36 1.92 c-2.58 0.36 -4.98 1.2 -4.98 5.4 l0 26.88 c0 3.42 1.5 4.62 6.6 4.62 c9.36 0 12.72 -4.02 14.16 -6.42 c0.48 -0.72 1.98 -0.42 1.98 0.6 c0 3.18 -2.52 9.12 -6.24 9.12 c-3.18 -0.18 -6.72 -0.36 -11.76 -0.36 c-5.58 0 -11.82 -0.18 -17.34 0.36 z"/></g><g id="SvgjsG1023" featurekey="nameFeature-0" transform="matrix(1.1998718137085183,0,0,1.1998718137085183,148.81240445408457,51.11347461942161)" fill="#ede2bf"><path d="M1.4 40.08 c-0.4 0.04 -0.56 -1.36 -0.24 -1.44 c2.32 -0.6 4.12 -0.96 4.12 -3.92 l0 -17.76 c0 -2.8 -1.64 -3.36 -3.36 -3.6 c-0.32 -0.04 -0.08 -1.36 0.2 -1.36 l11.04 0 c0.28 0 0.48 1.32 0.2 1.36 c-1.68 0.2 -3.28 0.8 -3.28 3.6 l0 17.76 c0 2.28 0.96 3.12 4.28 3.12 c6.04 0 8.44 -2.76 9.4 -4.28 c0.28 -0.44 1.36 -0.24 1.36 0.44 c0 2.04 -1.72 6.08 -4.24 6.08 c-2.24 -0.12 -4.44 -0.24 -7.8 -0.24 c-3.68 0 -8.04 -0.12 -11.68 0.24 z M37.84 40.64 c-5.56 0 -9.72 -4 -9.72 -9.8 c0 -5.64 4 -10.16 9.88 -10.16 c5.56 0 9.72 4 9.72 9.8 c0 5.64 -3.96 10.16 -9.88 10.16 z M39 38.24 c1.96 0 4.36 -1.2 4.36 -5.8 c0 -5.24 -2.84 -9.36 -6.56 -9.36 c-1.92 0 -4.32 1.2 -4.32 5.76 c0 5.28 2.84 9.4 6.52 9.4 z M58 40.64 c-1.64 0 -3.84 -1.52 -3.84 -2.68 l0 -11.56 c0 -2.32 -0.68 -3 -3.48 -3 c-0.44 0 -0.44 -1.24 -0.12 -1.36 c3.04 -1.2 4.52 -2.28 6.68 -4.76 c0.52 -0.6 1.6 0 1.44 0.68 c-0.16 0.72 -0.24 1.32 -0.24 1.8 c0 1.44 0.64 1.88 1.6 1.88 c1.48 0 3.32 -0.4 4.76 -0.52 c0.4 -0.04 0.56 0.32 0.56 0.84 c0 1.04 -0.64 2.52 -1.28 2.48 l-1.56 -0.12 c-2.72 -0.2 -4.12 -0.16 -4.12 1.68 l0 9.44 c0 1.52 0.76 2.08 2.16 2.08 c1.24 0 3.44 -0.24 4.52 -0.36 c0.32 -0.04 0.68 1.16 0.28 1.32 c-2.2 0.88 -4.08 1.44 -7.36 2.16 z M75.2 40.64 c-1.64 0 -3.84 -1.52 -3.84 -2.68 l0 -11.56 c0 -2.32 -0.68 -3 -3.48 -3 c-0.44 0 -0.44 -1.24 -0.12 -1.36 c3.04 -1.2 4.52 -2.28 6.68 -4.76 c0.52 -0.6 1.6 0 1.44 0.68 c-0.16 0.72 -0.24 1.32 -0.24 1.8 c0 1.44 0.64 1.88 1.6 1.88 c1.48 0 3.32 -0.4 4.76 -0.52 c0.4 -0.04 0.56 0.32 0.56 0.84 c0 1.04 -0.64 2.52 -1.28 2.48 l-1.56 -0.12 c-2.72 -0.2 -4.12 -0.16 -4.12 1.68 l0 9.44 c0 1.52 0.76 2.08 2.16 2.08 c1.24 0 3.44 -0.24 4.52 -0.36 c0.32 -0.04 0.68 1.16 0.28 1.32 c-2.2 0.88 -4.08 1.44 -7.36 2.16 z M89.92 16.92 c-0.88 0 -3.04 -1.88 -3.04 -3.04 s2.16 -3.04 3.04 -3.04 s3.04 1.88 3.04 3.04 s-2.16 3.04 -3.04 3.04 z M85.56 40 c-0.32 0 -0.6 -1.16 -0.28 -1.2 c1.24 -0.16 2.8 -0.72 2.8 -3.04 l0 -8.84 c0 -2.44 -0.64 -3.04 -2.72 -3.32 c-0.32 -0.04 -0.2 -1.08 0.08 -1.16 l7.08 -1.68 c0.4 -0.08 0.6 0.2 0.48 0.72 c-0.28 1.28 -0.64 3.64 -0.64 6.24 l0 8.04 c0 2.32 1.56 2.88 2.8 3.04 c0.28 0.04 0.04 1.2 -0.28 1.2 l-9.32 0 z M98.12 40 c-0.32 0 -0.6 -1.16 -0.28 -1.2 c1.2 -0.16 2.76 -0.76 2.76 -3.52 l0 -9.12 c0 -1.92 -1.04 -2.36 -2.72 -2.56 c-0.32 -0.04 -0.16 -1.08 0.16 -1.16 l6.32 -1.76 c0.48 -0.12 0.68 0.2 0.68 0.56 c0 1.16 0.08 2.56 0.96 2 c1.48 -0.96 3.68 -2.56 5 -2.56 c0.56 0 2 1.16 1.88 1.8 c-0.36 1.92 -0.8 3.32 -1.4 3.32 c-0.2 0 -1.16 -1.04 -3.28 -1.04 c-1.6 0 -3.32 0.48 -3.32 2.56 l0 7.96 c0 2.76 1.12 2.96 4.76 3.52 c0.28 0.04 0.16 1.2 -0.64 1.2 l-10.88 0 z M132.44 36.92 c0.36 -0.08 0.68 1 0.44 1.12 c-1.56 0.76 -4.8 2.6 -5.56 2.6 c-4.92 0 -11.24 -2.32 -11.24 -9.4 c0 -4.76 2.92 -10.56 10.08 -10.56 c6.04 0 6.8 4.32 6.8 6 c0 1.04 -0.32 2.6 -0.72 3.52 l-11.88 0.32 c0.76 4.96 4.8 7.04 7.96 7.04 c0.36 0 2.08 -0.2 4.12 -0.64 z M124.76 23.24 c-3.16 0 -4.4 2.16 -4.52 5.2 l8.68 -0.28 c0.4 -2.16 -0.64 -4.92 -4.16 -4.92 z M158.76000000000002 38 c0.2 0.12 0.28 0.4 0.28 0.56 c0 0.84 -3.48 2.08 -5.16 2.08 c-1.28 0 -1.72 -2.52 -2.92 -2 c-1.72 0.76 -4.56 2 -5.92 2 c-4.4 0 -8.28 -3.4 -8.28 -9.24 c0 -5.4 3.36 -10.72 9.8 -10.72 c3.52 0 4.48 1.92 4.48 -0.68 l0 -3.44 c0 -2.88 -0.24 -3.44 -4.2 -3.92 c-0.28 -0.04 -0.2 -1.08 0.08 -1.12 l8.56 -1.6 c0.36 -0.08 0.68 0.2 0.56 0.72 c-0.28 1.28 -0.72 3.68 -0.72 7.32 l0 17.68 c0 3.4 2.88 2 3.44 2.36 z M151.04000000000002 35.68 l0 -9.64 c-0.84 -1.48 -2.4 -2.96 -4.96 -2.96 c-3.4 0 -5 2.36 -5 6.4 c0 5.24 2.84 8.64 5.88 8.64 c1.32 0 4.08 -1.48 4.08 -2.44 z M192.84000000000003 20.48 c0 7.12 -6.68 10.12 -15.52 8.8 l0 5.76 c0 2.8 1.92 3.28 4.48 3.6 c0.28 0.04 0.08 1.36 -0.24 1.36 l-12.12 0 c-0.32 0 -0.56 -1.32 -0.24 -1.36 c2.04 -0.28 3.32 -1.08 3.32 -3.6 l0 -17.84 c0 -2.64 -1.4 -3.4 -3.32 -3.92 c-0.32 -0.08 -0.12 -1.4 0.24 -1.36 c1.56 0.2 3.32 0.24 4.6 0.24 c2.96 0 5.44 -0.24 7.48 -0.24 c6.2 0 11.32 2.28 11.32 8.56 z M180.52000000000004 14 c-2.52 0 -3.2 0.88 -3.2 3.2 l0 10.12 c6.8 0.96 10.36 -0.68 10.36 -5.92 c0 -4.76 -3.04 -7.4 -7.16 -7.4 z M206.36000000000004 40.64 c-5.56 0 -9.72 -4 -9.72 -9.8 c0 -5.64 4 -10.16 9.88 -10.16 c5.56 0 9.72 4 9.72 9.8 c0 5.64 -3.96 10.16 -9.88 10.16 z M207.52000000000004 38.24 c1.96 0 4.36 -1.2 4.36 -5.8 c0 -5.24 -2.84 -9.36 -6.56 -9.36 c-1.92 0 -4.32 1.2 -4.32 5.76 c0 5.28 2.84 9.4 6.52 9.4 z M226.28000000000003 40.64 c-3.24 0 -6.64 -1.32 -6.2 -2.52 l0.64 -1.68 c0.92 -2.44 2.56 1.76 7.04 1.76 c3.88 0 4.4 -2.56 1.32 -4.12 l-5.24 -2.64 c-6.12 -3.08 -4.08 -10.76 3.76 -10.76 c2.96 0 6 1.2 5.52 2.36 l-0.68 1.68 c-0.96 2.4 -2.48 -1.56 -6.44 -1.56 c-3.04 0 -3.6 2.56 -0.8 3.96 l5.44 2.76 c6.4 3.24 4.24 10.76 -4.36 10.76 z"/></g></svg>