<svg xmlns="http://www.w3.org/2000/svg" width="429" height="93.68872304227193" viewBox="0 0 369.65517241379314 80.72848734130336" class="css-1j8o68f"><defs id="SvgjsDefs1016"/><g id="SvgjsG1017" featurekey="monogramFeature-0" transform="matrix(5.7580944868371535,0,0,5.7580944868371535,-5.7580944868371535,-34.4334023954397)" fill="#f08a5d"><path d="M1 5.98 l4.64 0 l0 10.16 l5.84 0 l0 3.86 l-10.48 0 l0 -14.02 z"/></g><g id="SvgjsG1018" featurekey="fHLFJf-0" transform="matrix(2.2201834265203373,0,0,2.2201834265203373,77.77981657347966,13.874126351043781)" fill="#f08a5d"><path d="M1 5.98 l4.64 0 l0 10.16 l5.84 0 l0 3.86 l-10.48 0 l0 -14.02 z M21.889499999999998 9.59 q1.4 0.69 2.16 1.96 t0.76 2.97 t-0.76 2.97 t-2.16 1.97 t-3.26 0.7 t-3.26 -0.7 t-2.16 -1.97 t-0.76 -2.97 t0.76 -2.97 t2.16 -1.96 t3.26 -0.69 t3.26 0.69 z M17.4395 13.04 q-0.45 0.58 -0.45 1.54 t0.45 1.54 t1.19 0.58 t1.19 -0.58 t0.45 -1.54 t-0.45 -1.54 t-1.19 -0.58 t-1.19 0.58 z M34.479 19.52 q-0.54 0.32 -1.41 0.5 t-1.77 0.18 q-1.84 0 -2.95 -1.01 t-1.11 -2.71 l0 -3.98 l-1.5 0 l0 -2.84 l1.5 0 l0 -3.06 l4.48 0 l0 3.06 l2.56 0 l0 2.84 l-2.56 0 l0 3.3 q0 0.44 0.24 0.69 t0.64 0.23 q0.38 0 1.12 -0.28 z M44.1485 19.52 q-0.54 0.32 -1.41 0.5 t-1.77 0.18 q-1.84 0 -2.95 -1.01 t-1.11 -2.71 l0 -3.98 l-1.5 0 l0 -2.84 l1.5 0 l0 -3.06 l4.48 0 l0 3.06 l2.56 0 l0 2.84 l-2.56 0 l0 3.3 q0 0.44 0.24 0.69 t0.64 0.23 q0.38 0 1.12 -0.28 z M46.018 9.06 l4.5 0 l0 10.94 l-4.5 0 l0 -10.94 z M49.858 4.300000000000001 q0.64 0.64 0.64 1.64 t-0.64 1.64 t-1.64 0.64 t-1.64 -0.64 t-0.64 -1.64 t0.64 -1.64 t1.64 -0.64 t1.64 0.64 z M59.1175 9.33 q0.85 -0.47 1.91 -0.47 l0 4.06 q-0.44 -0.06 -0.86 -0.06 q-1.16 0 -1.82 0.51 t-0.66 1.41 l0 5.22 l-4.5 0 l0 -10.94 l4.5 0 l0 1.6 q0.58 -0.86 1.43 -1.33 z M70.95700000000001 9.64 q1.32 0.74 2.02 2.11 t0.7 3.21 q0 0.38 -0.02 0.58 l-7.12 0 q0.22 0.64 0.69 0.97 t1.13 0.33 q1.18 0 2.22 -0.98 l2.34 2.3 q-0.88 0.98 -2.13 1.49 t-2.83 0.51 q-1.84 0 -3.19 -0.69 t-2.06 -1.95 t-0.71 -2.94 q0 -1.72 0.72 -3 t2.05 -1.98 t3.07 -0.7 q1.8 0 3.12 0.74 z M68.827 12.34 q-0.37 -0.44 -0.95 -0.44 q-0.56 0 -0.93 0.42 t-0.51 1.14 l2.72 0 q0.04 -0.68 -0.33 -1.12 z M87.0465 5.16 l0 14.84 l-4.5 0 l0 -1.1 q-1.08 1.26 -2.78 1.26 q-1.5 0 -2.64 -0.7 t-1.76 -1.99 t-0.62 -3.01 q0 -1.68 0.6 -2.94 t1.71 -1.94 t2.59 -0.68 q0.88 0 1.62 0.33 t1.28 0.95 l0 -5.02 l4.5 0 z M82.1065 16.12 q0.44 -0.58 0.44 -1.54 t-0.44 -1.54 t-1.18 -0.58 t-1.19 0.58 t-0.45 1.54 t0.45 1.54 t1.19 0.58 t1.18 -0.58 z M105.00550000000001 7.289999999999999 q1.5 1.31 1.5 3.71 q0 2.54 -1.5 3.95 t-4.24 1.41 l-1.94 0 l0 3.64 l-4.64 0 l0 -14.02 l6.58 0 q2.74 0 4.24 1.31 z M101.69550000000001 12.39 q0.41 -0.45 0.41 -1.25 q0 -0.78 -0.41 -1.21 t-1.17 -0.43 l-1.7 0 l0 3.34 l1.7 0 q0.76 0 1.17 -0.45 z M117.115 9.59 q1.4 0.69 2.16 1.96 t0.76 2.97 t-0.76 2.97 t-2.16 1.97 t-3.26 0.7 t-3.26 -0.7 t-2.16 -1.97 t-0.76 -2.97 t0.76 -2.97 t2.16 -1.96 t3.26 -0.69 t3.26 0.69 z M112.665 13.04 q-0.45 0.58 -0.45 1.54 t0.45 1.54 t1.19 0.58 t1.19 -0.58 t0.45 -1.54 t-0.45 -1.54 t-1.19 -0.58 t-1.19 0.58 z M126.28450000000001 11.82 q-0.28 0 -0.45 0.1 t-0.17 0.26 q0 0.24 0.36 0.4 t1.2 0.38 q1.18 0.32 2.02 0.66 t1.47 1.04 t0.63 1.82 t-0.61 1.96 t-1.73 1.3 t-2.62 0.46 q-3.06 0 -5.34 -1.56 l1.36 -2.8 q2.2 1.36 4.04 1.36 q0.32 0 0.5 -0.09 t0.18 -0.23 q0 -0.22 -0.35 -0.37 t-1.13 -0.35 q-1.18 -0.3 -2 -0.64 t-1.45 -1.04 t-0.63 -1.84 t0.6 -1.99 t1.69 -1.32 t2.53 -0.47 q2.62 0 5.08 1.38 l-1.48 2.78 q-2.44 -1.2 -3.7 -1.2 z"/></g></svg>