<svg xmlns="http://www.w3.org/2000/svg" viewBox="0 0 369.65517241379314 80.72848734130336" height="80.72848734130336" width="369.65517241379314" style="width: 369.655px; height: 80.7285px; position: absolute; top: 50%; left: 50%; z-index: 0; cursor: pointer; transform: translate(-50%, -50%) scale(0.562687);"><defs id="SvgjsDefs1133"/><g id="SvgjsG1134" featurekey="monogramFeature-0" transform="matrix(5.7580944868371535,0,0,5.7580944868371535,-5.7580944868371535,-34.4334023954397)" fill="#f08a5d"><path d="M1 5.98 l4.64 0 l0 10.16 l5.84 0 l0 3.86 l-10.48 0 l0 -14.02 z"/></g><g id="SvgjsG1135" featurekey="fHLFJf-0" transform="matrix(2.183050150003047,0,0,2.183050150003047,78.23109555911995,12.700991228534807)" fill="#f08a5d"><path d="M2.2852 13.6328 l-0.89844 0 l1.875 -8.1836 l4.9023 0 l-1.8945 8.1836 l0.9082 0 l-0.64453 2.666 l5.4199 0 l-0.83984 3.6914 l-10.303 0 z M24.64111328125 14.541 c-0.81055 3.5547 -3.4082 5.8203 -7.0996 5.8203 c-3.6035 0 -5.2734 -2.168 -4.4336 -5.8203 c0.068359 -0.29297 0.14648 -0.5957 0.26367 -0.86914 l-1.0059 0 c1.0449 -3.0957 3.5156 -4.9707 6.875 -4.9707 c3.457 0 4.9316 2.0215 4.5703 4.9707 l0.98633 0 c-0.029297 0.27344 -0.087891 0.57617 -0.15625 0.86914 z M17.04341328125 13.6719 l0.97656 0 c-0.55664 1.4648 -0.66406 3.3789 0.30273 3.3789 c0.88867 0 1.6797 -1.9141 1.7969 -3.3789 l-0.9668 0 c0.078125 -0.91797 -0.10742 -1.6602 -0.68359 -1.6602 c-0.53711 0 -1.0742 0.74219 -1.4258 1.6602 z M26.9482390625 13.789100000000001 l-1.0645 0 l0.3125 -1.4453 l-1.1523 0 l0.74219 -3.2422 l1.1816 0 l0.6543 -2.8613 l4.6387 0 l-0.6543 2.8613 l2.9102 0 l-0.74219 3.2422 l-2.9395 0 c-0.087891 0.49805 -0.19531 0.94727 -0.3125 1.4453 l1.0547 0 c-0.19531 0.83984 -0.40039 1.6699 -0.57617 2.5195 c-0.36133 1.6504 0.9375 1.5137 1.4355 0.49805 l1.3574 0 l-0.76172 3.3789 c-1.377 0.11719 -3.6328 0.29297 -5.166 -0.019531 c-1.7773 -0.38086 -1.9141 -2.0703 -1.5527 -3.6719 z M36.91161796875 13.789100000000001 l-1.0645 0 l0.3125 -1.4453 l-1.1523 0 l0.74219 -3.2422 l1.1816 0 l0.6543 -2.8613 l4.6387 0 l-0.6543 2.8613 l2.9102 0 l-0.74219 3.2422 l-2.9395 0 c-0.087891 0.49805 -0.19531 0.94727 -0.3125 1.4453 l1.0547 0 c-0.19531 0.83984 -0.40039 1.6699 -0.57617 2.5195 c-0.36133 1.6504 0.9375 1.5137 1.4355 0.49805 l1.3574 0 l-0.76172 3.3789 c-1.377 0.11719 -3.6328 0.29297 -5.166 -0.019531 c-1.7773 -0.38086 -1.9141 -2.0703 -1.5527 -3.6719 z M45.810596875 13.789100000000001 l-1.0254 0 l0.84961 -3.7793 l4.6582 0 l-0.84961 3.7793 l1.0352 0 l-1.377 6.2109 l-4.6582 0 z M51.494096875 5.234 l-0.81055 3.5352 l-4.8242 0 l0.81055 -3.5352 l4.8242 0 z M56.80904765625 13.6328 l-1.4453 6.3574 l-4.5801 0 l1.4551 -6.3574 l-0.88867 0 l1.0645 -4.6094 l4.5801 0 l-0.13672 0.52734 c1.2891 -0.6543 2.1973 -0.6543 3.5352 -0.41016 l-0.89844 3.877 l-1.2109 0 c-0.20508 -0.92773 -1.9238 -0.57617 -2.2461 0.14648 l-0.11719 0.46875 l0.88867 0 z M61.3036765625 14.5703 c0.078125 -0.33203 0.18555 -0.625 0.2832 -0.9375 l-1.084 0 c2.3438 -6.377 12.383 -7.0117 11.084 0 l1.0938 0 c-0.019531 0.11719 -0.019531 0.23438 -0.048828 0.36133 l-0.41992 1.6309 l-6.4648 0 c-0.33203 2.4121 4.248 1.6797 4.6973 0.81055 l1.4941 0 l-0.71289 2.7832 c-3.8574 2.2168 -11.357 1.6602 -9.9219 -4.6484 z M68.2275765625 12.685500000000001 c0.21484 -1.0645 -2.1289 -1.6699 -3.2324 0 c0.0097656 0 3.2324 0.0097656 3.2324 0 z M85.44658984375 13.6328 l-1.4453 6.3672 l-4.6191 0 l0.078125 -0.51758 c-4.4141 1.7773 -6.1719 -0.87891 -5.2344 -4.8926 c0.068359 -0.32227 0.12695 -0.61523 0.26367 -0.95703 l-1.084 0 c1.084 -2.9785 4.0625 -5.8887 7.4023 -4.6875 l0.019531 0 l0.86914 -3.7695 l4.5703 0 l-1.9336 8.457 l1.1133 0 z M77.80028984375 13.6328 l1.1035 0 c-0.82031 1.6016 -0.69336 3.7402 1.2695 2.9004 l0.68359 -2.9004 l-1.1133 0 l0.33203 -1.4063 c-0.9668 -0.22461 -1.8066 0.45898 -2.2754 1.4063 z M80.17338984375 16.5332 c0.048828 -0.019531 0.097656 -0.048828 0.12695 -0.068359 c0 0 -0.029297 0.019531 -0.12695 0.068359 z M98.35201640625 13.6328 c0.63477 -2.7246 1.2695 -5.459 1.9043 -8.1836 l5.8594 0 c3.5059 0 5.957 1.8164 4.3457 5.791 c-0.41016 0.98633 -0.95703 1.7773 -1.582 2.3926 l0.88867 0 c-1.5332 1.4746 -3.6523 1.9727 -6.0938 1.9727 l-1.0156 4.3848 l-4.8633 0 l1.4648 -6.3574 l-0.9082 0 z M104.27981640625 9.072 c-0.20508 0.95703 -0.43945 1.9336 -0.6543 2.9297 c2.4316 -0.12695 3.3398 -2.9297 0.6543 -2.9297 z M122.4560546875 14.541 c-0.81055 3.5547 -3.4082 5.8203 -7.0996 5.8203 c-3.6035 0 -5.2734 -2.168 -4.4336 -5.8203 c0.068359 -0.29297 0.14648 -0.5957 0.26367 -0.86914 l-1.0059 0 c1.0449 -3.0957 3.5156 -4.9707 6.875 -4.9707 c3.457 0 4.9316 2.0215 4.5703 4.9707 l0.98633 0 c-0.029297 0.27344 -0.087891 0.57617 -0.15625 0.86914 z M114.8583546875 13.6719 l0.97656 0 c-0.55664 1.4648 -0.66406 3.3789 0.30273 3.3789 c0.88867 0 1.6797 -1.9141 1.7969 -3.3789 l-0.9668 0 c0.078125 -0.91797 -0.10742 -1.6602 -0.68359 -1.6602 c-0.53711 0 -1.0742 0.74219 -1.4258 1.6602 z M132.48798046875 13.6328 c0.79102 0.60547 1.0742 1.4941 0.79102 2.7148 c-0.94727 4.248 -7.1484 4.707 -10.449 2.832 l0.79102 -3.3789 l1.3281 0 c0.14648 0.80078 1.6211 1.6113 3.0859 1.2598 c0.9082 -0.24414 0.55664 -0.56641 -0.068359 -0.74219 c-0.92773 -0.25391 -2.4121 -0.13672 -3.3496 -1.6211 c-0.18555 -0.30273 -0.2832 -0.70313 -0.30273 -1.0645 l-0.91797 0 c-0.058594 -0.89844 0.30273 -1.8457 0.79102 -2.5098 c2.0801 -2.7148 6.416 -2.9688 9.3066 -1.4063 l-0.71289 3.0664 l-1.3672 0 c-0.39063 -0.67383 -2.5391 -1.3086 -3.1348 -0.78125 c-0.20508 0.20508 -0.068359 0.56641 0.9668 0.76172 c0.41016 0.078125 0.86914 0.16602 1.2695 0.30273 c0.41992 0.16602 0.77148 0.35156 1.0645 0.56641 l0.9082 0 z"/></g></svg>