<svg xmlns="http://www.w3.org/2000/svg" class="css-rt6ihi" viewBox="0 0 69.99999999999999 82.00432062968052"><g transform="translate(-2.890410571219836, -35.04346463914084) scale(1.946859352915576)" fill="#a31b00"><path d="M2.1 60.12 c-0.6 0.06 -0.84 -1.92 -0.36 -2.04 c3.48 -0.9 6.24 -1.44 6.24 -5.88 l0 -26.88 c0 -4.2 -2.52 -5.04 -5.1 -5.4 c-0.48 -0.06 -0.12 -1.92 0.3 -1.92 l16.14 0 c0.48 0 0.78 1.86 0.36 1.92 c-2.58 0.36 -4.98 1.2 -4.98 5.4 l0 26.88 c0 3.42 1.5 4.62 6.6 4.62 c9.36 0 12.72 -4.02 14.16 -6.42 c0.48 -0.72 1.98 -0.42 1.98 0.6 c0 3.18 -2.52 9.12 -6.24 9.12 c-3.18 -0.18 -6.72 -0.36 -11.76 -0.36 c-5.58 0 -11.82 -0.18 -17.34 0.36 z"/></g></svg>